<?xml version="1.0" encoding="iso-8859-1"?>
<!-- Generator: Adobe Illustrator 19.0.0, SVG Export Plug-In . SVG Version: 6.00 Build 0)  -->
<svg version="1.1" id="Capa_1" xmlns="http://www.w3.org/2000/svg" xmlns:xlink="http://www.w3.org/1999/xlink" x="0px" y="0px"
	 viewBox="0 0 512 512" style="enable-background:new 0 0 512 512;" xml:space="preserve">
<g>
	<path style="fill:#B0D3F0;" d="M503.172,52.966L512,70.621v414.897C512,500.143,500.143,512,485.517,512H26.483
		C11.857,512,0,500.143,0,485.517V70.621l8.828-17.655H503.172z"/>
	<path style="fill:#90BAE1;" d="M512,70.621v414.897C512,500.143,500.143,512,485.517,512H26.483C11.857,512,0,500.143,0,485.517
		v-44.138C423.724,441.379,512,70.621,512,70.621z"/>
	<path style="fill:#35495E;" d="M397.241,70.621H0V26.483C0,11.857,11.857,0,26.483,0h459.034C500.143,0,512,11.857,512,26.483
		v44.138H397.241z"/>
	<path style="fill:#E64C3C;" d="M44.138,44.138H35.31c-4.875,0-8.828-3.952-8.828-8.828s3.952-8.828,8.828-8.828h8.828
		c4.875,0,8.828,3.952,8.828,8.828S49.013,44.138,44.138,44.138z"/>
	<path style="fill:#F0C419;" d="M88.276,44.138h-8.828c-4.875,0-8.828-3.952-8.828-8.828s3.952-8.828,8.828-8.828h8.828
		c4.875,0,8.828,3.952,8.828,8.828S93.151,44.138,88.276,44.138z"/>
	<path style="fill:#71C285;" d="M132.414,44.138h-8.828c-4.875,0-8.828-3.952-8.828-8.828s3.952-8.828,8.828-8.828h8.828
		c4.875,0,8.828,3.952,8.828,8.828S137.289,44.138,132.414,44.138z"/>
	<path style="fill:#F29C1F;" d="M388.414,406.069c14.626,0,26.483-11.857,26.483-26.483V167.724
		c0-14.626-11.857-26.483-26.483-26.483H123.586c-14.626,0-26.483,11.857-26.483,26.483v238.345H388.414z"/>
	<g>
		<path style="fill:#E6E7E8;" d="M238.345,256h35.31c4.875,0,8.828,3.952,8.828,8.828v88.276c0,4.875-3.952,8.828-8.828,8.828
			h-35.31c-4.875,0-8.828-3.952-8.828-8.828v-88.276C229.517,259.952,233.469,256,238.345,256z"/>
		<path style="fill:#E6E7E8;" d="M238.345,185.379h35.31c4.875,0,8.828,3.952,8.828,8.828v17.655c0,4.875-3.952,8.828-8.828,8.828
			h-35.31c-4.875,0-8.828-3.952-8.828-8.828v-17.655C229.517,189.332,233.469,185.379,238.345,185.379z"/>
	</g>
</g>
<g>
</g>
<g>
</g>
<g>
</g>
<g>
</g>
<g>
</g>
<g>
</g>
<g>
</g>
<g>
</g>
<g>
</g>
<g>
</g>
<g>
</g>
<g>
</g>
<g>
</g>
<g>
</g>
<g>
</g>
</svg>
